<svg version="1.1" xmlns="http://www.w3.org/2000/svg" xmlns:xlink="http://www.w3.org/1999/xlink" viewBox="0 0 1400 1400">
    <g>
        <g style="fill: #c8c8ff;" transform="translate(222,700) scale(0.100000,-0.100000)">
            <path style="fill: #c8c8ff;" class="moon" d="M3171.6,4912.9c-1120.8-461-2057.2-1357-2584.4-2472C-320.4,522,62.8-1768.5,1546.6-3275.3c878.7-893.2,1993.8-1408.9,3241.3-1504c1855.5-141.2,3653.3,760.6,4635.8,2322.2c221.9,354.4,512.8,971,472.5,1008.4c-5.7,5.8-121-20.2-250.6-60.5c-852.9-259.3-1916-265-2800.5-17.3c-584.9,164.2-1172.6,455.2-1659.6,821.1c-328.4,247.8-847,777.9-1071.8,1094.8C3664.3,1020.5,3356,1789.7,3235,2559c-103.7,668.4-43.2,1573.1,146.9,2183.9c77.8,250.6,80.7,270.8,51.9,270.8C3419.4,5013.8,3304.1,4967.7,3171.6,4912.9z" />
        </g>
    </g>
</svg>